<?xml version="1.0" encoding="UTF-8"?>
<svg xmlns="http://www.w3.org/2000/svg" viewBox="0 0 331.61 400.14">
  <defs>
    <style>
      .cls-1 {
        isolation: isolate;
      }

      .cls-2 {
        fill: #d94652;
      }

      .cls-3 {
        mix-blend-mode: multiply;
      }

      .cls-3, .cls-4 {
        fill: #89d0f7;
      }

      .cls-5 {
        fill: #fe5655;
      }
    </style>
  </defs>
  <g class="cls-1">
    <g id="Layer_2" data-name="Layer 2">
      <g id="Layer_1-2" data-name="Layer 1">
        <g>
          <g>
            <path class="cls-5" d="m293.24,173.51l-65.35-9.15,6.91-17.93,48.04,7.79c9.47,1.53,13.93,11.52,10.4,19.29Z"/>
            <path class="cls-5" d="m243.82,22.1l-4.52,11.29L28.32,213.64l-18.12-3.39c-10.29-1.92-13.78-14.91-5.85-21.75L218.45,3.99c12.73-10.97,31.61,2.52,25.37,18.11Z"/>
            <path class="cls-5" d="m124.48,254.15l-37.13,95.66-12.81,10.87c-11.12,9.43-27.49-2.15-22.29-15.78l37.01-96.93,35.22,6.18Z"/>
            <path class="cls-4" d="m276.38,38.59l-41.58,107.84-38.27-6.2,42.77-106.84,13.47-11.52c11.78-10.05,29.19,2.27,23.61,16.72Z"/>
            <path class="cls-2" d="m293.24,173.51c-.8,1.77-2.02,3.44-3.68,4.85l-202.21,171.44,37.13-95.66-35.22-6.18,8.15-21.35-69.09-12.97L239.3,33.39l-42.77,106.84,38.27,6.2-6.91,17.93,65.35,9.15Z"/>
            <path class="cls-3" d="m97.41,226.61l-8.15,21.35-57.91-10.17c-10.29-1.94-13.78-14.91-5.85-21.75l2.82-2.41,69.09,12.97Z"/>
            <path class="cls-3" d="m325.7,205.29l-226.91,191.3c-11.64,9.82-28.67-2.36-23.17-16.55l11.73-30.23,202.21-171.44c1.67-1.41,2.88-3.08,3.68-4.85l24.53,3.44c13.87,1.94,18.78,19.47,7.93,28.34Z"/>
          </g>
          <path class="cls-5" d="m304.64,119.79c0,1.21-.74,2.25-1.87,2.67l-12.07,4.46c-.32.12-.54.35-.66.66l-4.47,12.08c-.41,1.13-1.46,1.86-2.67,1.86s-2.25-.73-2.67-1.86l-4.46-12.08c-.12-.31-.37-.54-.66-.66l-12.07-4.46c-1.14-.42-1.87-1.46-1.87-2.67s.73-2.25,1.87-2.67l12.07-4.46c.32-.12.54-.37.66-.66l4.46-12.07c.42-1.14,1.47-1.87,2.67-1.87s2.26.73,2.67,1.87l4.47,12.07c.12.3.34.54.66.66l12.07,4.46c1.13.42,1.87,1.46,1.87,2.67Z"/>
        </g>
      </g>
    </g>
  </g>
</svg>