<?xml version="1.0" encoding="UTF-8"?>
<svg xmlns="http://www.w3.org/2000/svg" viewBox="0 0 1511.2 400.14">
  <defs>
    <style>
      .cls-1 {
        isolation: isolate;
      }

      .cls-2 {
        fill: #d94652;
      }

      .cls-3 {
        mix-blend-mode: multiply;
      }

      .cls-3, .cls-4 {
        fill: #89d0f7;
      }

      .cls-5 {
        fill: #fe5655;
      }
    </style>
  </defs>
  <g class="cls-1">
    <g id="Layer_2" data-name="Layer 2">
      <g id="Layer_1-2" data-name="Layer 1">
        <g>
          <g>
            <path d="m439.95,130.2v55.68h102.46v39.3h-102.46v88.74h-43.82V90.28h162.66v39.92h-118.84Z"/>
            <path d="m570.2,90.28v223.64h42.1V90.28h-42.1Z"/>
            <path d="m710.89,318.6c-22.61,0-41.48-8.11-56.77-24.48-15.28-16.38-22.93-36.65-22.93-60.82s7.64-44.92,22.93-61.13c15.28-16.22,34.31-24.33,56.92-24.33s39.46,7.95,51.93,24.02v-19.49h42.58v161.57h-42.58v-19.81c-12.48,16.22-29.79,24.33-51.93,24.33l-.16.16Zm7.33-38.05c12.94,0,23.86-4.52,32.75-13.57,8.89-9.05,13.26-20.43,13.26-34.31s-4.37-24.8-13.26-33.69c-8.89-8.89-19.81-13.41-32.75-13.41s-24.17,4.37-32.75,13.26c-8.58,8.89-12.79,20.27-12.79,34.15s4.21,25.58,12.79,34.47c8.58,8.89,19.49,13.41,32.75,13.41v-.31Z"/>
            <path d="m897.28,318.28c-19.18,0-36.03-4.99-50.53-14.82-14.5-9.82-23.86-21.52-28.07-35.09l38.05-11.07c2.81,7.95,7.95,14.35,15.44,19.34,7.49,4.99,16.37,7.49,26.82,7.49,7.95,0,14.35-1.56,19.34-4.84,4.99-3.27,7.49-7.17,7.49-11.85,0-7.02-5.93-12.32-17.93-15.91l-41.17-12.17c-26.67-7.64-39.92-21.99-39.92-43.04,0-13.41,6.39-24.8,19.03-34.31,12.63-9.51,27.92-14.19,45.85-14.19,17,0,31.97,3.74,44.76,11.23,12.79,7.49,21.83,17.31,26.98,29.63l-37.43,10.92c-7.02-12.63-18.56-18.87-34.47-18.87-6.39,0-11.85,1.4-16.37,4.37-4.52,2.96-6.71,6.39-6.71,10.29,0,5.93,4.52,10.14,13.41,12.79l40.24,11.54c14.5,4.21,25.73,9.67,33.69,16.22,7.95,6.55,11.85,16.38,11.85,29.63,0,15.28-6.55,27.92-19.65,37.9-13.1,9.98-29.79,14.97-50.22,14.97l-.47-.15Z"/>
            <path d="m1128.59,167.16c-10.92-12.79-26.68-19.17-47.42-19.17v-.16c-21.67,0-38.98,8.27-51.92,24.95v-82.49h-42.12v223.64h42.12v-79.86c0-14.18,3.58-25.58,10.75-34.16,7.19-8.57,16.54-12.79,28.23-12.79s19.96,3.59,25.73,10.77c5.77,7.17,8.74,17.01,8.74,29.64v86.56h42.26v-94.51c0-22.16-5.46-39.62-16.37-52.41Z"/>
            <path d="m1259.28,221.91l62.08-69.56h-49.29l-58.17,66.75V90.28h-42.1v223.64h42.1v-41.18l18.88-21.06,46.93,62.23h48.03l-68.46-92.02Z"/>
            <path d="m1358.5,129.89c-7.02,0-12.94-2.34-17.78-7.17-4.83-4.84-7.33-10.76-7.33-17.78s2.5-12.63,7.33-17.31c4.83-4.68,10.76-7.02,17.78-7.02s12.94,2.34,17.78,7.02c4.83,4.68,7.33,10.45,7.33,17.31s-2.5,12.94-7.33,17.62c-4.83,4.68-10.76,7.02-17.78,7.02v.31Zm-21.83,22.77h42.42v161.57h-42.42v-161.57Z"/>
            <path d="m1511.2,308.77c-12.79,5.15-25.42,7.64-37.74,7.64-17.93,0-31.35-5.15-40.39-15.28-9.04-10.14-13.57-24.33-13.57-42.42v-69.4h-27.14v-36.96h27.14v-52.4h42.42v52.4h47.25v36.96h-47.25v69.4c0,13.57,6.55,20.43,19.81,20.43,6.86,0,13.26-1.56,19.18-4.52l10.29,34.15Z"/>
          </g>
          <g>
            <g>
              <path class="cls-5" d="m293.24,173.51l-65.35-9.15,6.91-17.93,48.04,7.79c9.47,1.53,13.93,11.52,10.4,19.29Z"/>
              <path class="cls-5" d="m243.82,22.1l-4.52,11.29L28.32,213.64l-18.12-3.39c-10.29-1.92-13.78-14.91-5.85-21.75L218.45,3.99c12.73-10.97,31.61,2.52,25.37,18.11Z"/>
              <path class="cls-5" d="m124.48,254.15l-37.13,95.66-12.81,10.87c-11.12,9.43-27.49-2.15-22.29-15.78l37.01-96.93,35.22,6.18Z"/>
              <path class="cls-4" d="m276.38,38.59l-41.58,107.84-38.27-6.2,42.77-106.84,13.47-11.52c11.78-10.05,29.19,2.27,23.61,16.72Z"/>
              <path class="cls-2" d="m293.24,173.51c-.8,1.77-2.02,3.44-3.68,4.85l-202.21,171.44,37.13-95.66-35.22-6.18,8.15-21.35-69.09-12.97L239.3,33.39l-42.77,106.84,38.27,6.2-6.91,17.93,65.35,9.15Z"/>
              <path class="cls-3" d="m97.41,226.61l-8.15,21.35-57.91-10.17c-10.29-1.94-13.78-14.91-5.85-21.75l2.82-2.41,69.09,12.97Z"/>
              <path class="cls-3" d="m325.7,205.29l-226.91,191.3c-11.64,9.82-28.67-2.36-23.17-16.55l11.73-30.23,202.21-171.44c1.67-1.41,2.88-3.08,3.68-4.85l24.53,3.44c13.87,1.94,18.78,19.47,7.93,28.34Z"/>
            </g>
            <path class="cls-5" d="m304.64,119.79c0,1.21-.74,2.25-1.87,2.67l-12.07,4.46c-.32.12-.54.35-.66.66l-4.47,12.08c-.41,1.13-1.46,1.86-2.67,1.86s-2.25-.73-2.67-1.86l-4.46-12.08c-.12-.31-.37-.54-.66-.66l-12.07-4.46c-1.14-.42-1.87-1.46-1.87-2.67s.73-2.25,1.87-2.67l12.07-4.46c.32-.12.54-.37.66-.66l4.46-12.07c.42-1.14,1.47-1.87,2.67-1.87s2.26.73,2.67,1.87l4.47,12.07c.12.3.34.54.66.66l12.07,4.46c1.13.42,1.87,1.46,1.87,2.67Z"/>
          </g>
        </g>
      </g>
    </g>
  </g>
</svg>