<svg width="56" height="56" viewBox="0 0 56 56" fill="none" xmlns="http://www.w3.org/2000/svg">
<rect width="56" height="56" rx="28" fill="#74BAFC"/>
<mask id="mask0_2_167" style="mask-type:alpha" maskUnits="userSpaceOnUse" x="12" y="12" width="32" height="32">
<rect x="12" y="12" width="32" height="32" fill="#D9D9D9"/>
</mask>
<g mask="url(#mask0_2_167)">
<path d="M18.6667 40C17.9333 40 17.3056 39.7389 16.7833 39.2167C16.2611 38.6944 16 38.0667 16 37.3333V18.6667C16 17.9333 16.2611 17.3056 16.7833 16.7833C17.3056 16.2611 17.9333 16 18.6667 16H29.3333C29.7111 16 30.0278 16.1278 30.2833 16.3833C30.5389 16.6389 30.6667 16.9556 30.6667 17.3333C30.6667 17.7111 30.5389 18.0278 30.2833 18.2833C30.0278 18.5389 29.7111 18.6667 29.3333 18.6667H18.6667V37.3333H37.3333V26.6667C37.3333 26.2889 37.4611 25.9722 37.7167 25.7167C37.9722 25.4611 38.2889 25.3333 38.6667 25.3333C39.0444 25.3333 39.3611 25.4611 39.6167 25.7167C39.8722 25.9722 40 26.2889 40 26.6667V37.3333C40 38.0667 39.7389 38.6944 39.2167 39.2167C38.6944 39.7389 38.0667 40 37.3333 40H18.6667ZM22.6667 25.3333C22.2889 25.3333 21.9722 25.4611 21.7167 25.7167C21.4611 25.9722 21.3333 26.2889 21.3333 26.6667V33.3333C21.3333 33.7111 21.4611 34.0278 21.7167 34.2833C21.9722 34.5389 22.2889 34.6667 22.6667 34.6667C23.0444 34.6667 23.3611 34.5389 23.6167 34.2833C23.8722 34.0278 24 33.7111 24 33.3333V26.6667C24 26.2889 23.8722 25.9722 23.6167 25.7167C23.3611 25.4611 23.0444 25.3333 22.6667 25.3333ZM28 21.3333C27.6222 21.3333 27.3056 21.4611 27.05 21.7167C26.7944 21.9722 26.6667 22.2889 26.6667 22.6667V33.3333C26.6667 33.7111 26.7944 34.0278 27.05 34.2833C27.3056 34.5389 27.6222 34.6667 28 34.6667C28.3778 34.6667 28.6944 34.5389 28.95 34.2833C29.2056 34.0278 29.3333 33.7111 29.3333 33.3333V22.6667C29.3333 22.2889 29.2056 21.9722 28.95 21.7167C28.6944 21.4611 28.3778 21.3333 28 21.3333ZM33.3333 29.3333C32.9556 29.3333 32.6389 29.4611 32.3833 29.7167C32.1278 29.9722 32 30.2889 32 30.6667V33.3333C32 33.7111 32.1278 34.0278 32.3833 34.2833C32.6389 34.5389 32.9556 34.6667 33.3333 34.6667C33.7111 34.6667 34.0278 34.5389 34.2833 34.2833C34.5389 34.0278 34.6667 33.7111 34.6667 33.3333V30.6667C34.6667 30.2889 34.5389 29.9722 34.2833 29.7167C34.0278 29.4611 33.7111 29.3333 33.3333 29.3333ZM34.6667 21.3333H33.3333C32.9556 21.3333 32.6389 21.2056 32.3833 20.95C32.1278 20.6944 32 20.3778 32 20C32 19.6222 32.1278 19.3056 32.3833 19.05C32.6389 18.7944 32.9556 18.6667 33.3333 18.6667H34.6667V17.3333C34.6667 16.9556 34.7944 16.6389 35.05 16.3833C35.3056 16.1278 35.6222 16 36 16C36.3778 16 36.6944 16.1278 36.95 16.3833C37.2056 16.6389 37.3333 16.9556 37.3333 17.3333V18.6667H38.6667C39.0444 18.6667 39.3611 18.7944 39.6167 19.05C39.8722 19.3056 40 19.6222 40 20C40 20.3778 39.8722 20.6944 39.6167 20.95C39.3611 21.2056 39.0444 21.3333 38.6667 21.3333H37.3333V22.6667C37.3333 23.0444 37.2056 23.3611 36.95 23.6167C36.6944 23.8722 36.3778 24 36 24C35.6222 24 35.3056 23.8722 35.05 23.6167C34.7944 23.3611 34.6667 23.0444 34.6667 22.6667V21.3333Z" fill="#2A0E0C"/>
</g>
</svg>
