<svg width="56" height="56" viewBox="0 0 56 56" fill="none" xmlns="http://www.w3.org/2000/svg">
<rect width="56" height="56" rx="28" fill="#FFE296"/>
<mask id="mask0_2_150" style="mask-type:alpha" maskUnits="userSpaceOnUse" x="12" y="12" width="32" height="32">
<rect x="12" y="12" width="32" height="32" fill="#D9D9D9"/>
</mask>
<g mask="url(#mask0_2_150)">
<path d="M16 38.6667V34.6667C16 33.9334 16.2611 33.3056 16.7833 32.7834C17.3056 32.2612 17.9333 32.0001 18.6667 32.0001H20V29.3334C20 28.6001 20.2611 27.9723 20.7833 27.4501C21.3056 26.9279 21.9333 26.6667 22.6667 26.6667H26.6667V24.0001H25.3333C24.6 24.0001 23.9722 23.739 23.45 23.2167C22.9278 22.6945 22.6667 22.0667 22.6667 21.3334V17.3334C22.6667 16.6001 22.9278 15.9723 23.45 15.4501C23.9722 14.9279 24.6 14.6667 25.3333 14.6667H30.6667C31.4 14.6667 32.0278 14.9279 32.55 15.4501C33.0722 15.9723 33.3333 16.6001 33.3333 17.3334V21.3334C33.3333 22.0667 33.0722 22.6945 32.55 23.2167C32.0278 23.739 31.4 24.0001 30.6667 24.0001H29.3333V26.6667H33.3333C34.0667 26.6667 34.6944 26.9279 35.2167 27.4501C35.7389 27.9723 36 28.6001 36 29.3334V32.0001H37.3333C38.0667 32.0001 38.6944 32.2612 39.2167 32.7834C39.7389 33.3056 40 33.9334 40 34.6667V38.6667C40 39.4001 39.7389 40.0279 39.2167 40.5501C38.6944 41.0723 38.0667 41.3334 37.3333 41.3334H32C31.2667 41.3334 30.6389 41.0723 30.1167 40.5501C29.5944 40.0279 29.3333 39.4001 29.3333 38.6667V34.6667C29.3333 33.9334 29.5944 33.3056 30.1167 32.7834C30.6389 32.2612 31.2667 32.0001 32 32.0001H33.3333V29.3334H22.6667V32.0001H24C24.7333 32.0001 25.3611 32.2612 25.8833 32.7834C26.4056 33.3056 26.6667 33.9334 26.6667 34.6667V38.6667C26.6667 39.4001 26.4056 40.0279 25.8833 40.5501C25.3611 41.0723 24.7333 41.3334 24 41.3334H18.6667C17.9333 41.3334 17.3056 41.0723 16.7833 40.5501C16.2611 40.0279 16 39.4001 16 38.6667ZM25.3333 21.3334H30.6667V17.3334H25.3333V21.3334ZM18.6667 38.6667H24V34.6667H18.6667V38.6667ZM32 38.6667H37.3333V34.6667H32V38.6667Z" fill="#2A0E0C"/>
</g>
</svg>
