<svg width="56" height="56" viewBox="0 0 56 56" fill="none" xmlns="http://www.w3.org/2000/svg">
<rect width="56" height="56" rx="28" fill="#FF847C"/>
<mask id="mask0_2_158" style="mask-type:alpha" maskUnits="userSpaceOnUse" x="12" y="12" width="32" height="32">
<rect x="12" y="12" width="32" height="32" fill="#D9D9D9"/>
</mask>
<g mask="url(#mask0_2_158)">
<path d="M18.6667 40C17.9333 40 17.3056 39.7389 16.7833 39.2167C16.2611 38.6944 16 38.0667 16 37.3333V18.6667C16 17.9333 16.2611 17.3056 16.7833 16.7833C17.3056 16.2611 17.9333 16 18.6667 16H25.3333C25.7111 16 26.0278 16.1278 26.2833 16.3833C26.5389 16.6389 26.6667 16.9556 26.6667 17.3333C26.6667 17.7111 26.5389 18.0278 26.2833 18.2833C26.0278 18.5389 25.7111 18.6667 25.3333 18.6667H18.6667V37.3333H37.3333V30.6667C37.3333 30.2889 37.4611 29.9722 37.7167 29.7167C37.9722 29.4611 38.2889 29.3333 38.6667 29.3333C39.0444 29.3333 39.3611 29.4611 39.6167 29.7167C39.8722 29.9722 40 30.2889 40 30.6667V37.3333C40 38.0667 39.7389 38.6944 39.2167 39.2167C38.6944 39.7389 38.0667 40 37.3333 40H18.6667ZM33.3333 22.6667H30.6667C30.2889 22.6667 29.9722 22.5389 29.7167 22.2833C29.4611 22.0278 29.3333 21.7111 29.3333 21.3333C29.3333 20.9556 29.4611 20.6389 29.7167 20.3833C29.9722 20.1278 30.2889 20 30.6667 20H33.3333V17.3333C33.3333 16.9556 33.4611 16.6389 33.7167 16.3833C33.9722 16.1278 34.2889 16 34.6667 16C35.0444 16 35.3611 16.1278 35.6167 16.3833C35.8722 16.6389 36 16.9556 36 17.3333V20H38.6667C39.0444 20 39.3611 20.1278 39.6167 20.3833C39.8722 20.6389 40 20.9556 40 21.3333C40 21.7111 39.8722 22.0278 39.6167 22.2833C39.3611 22.5389 39.0444 22.6667 38.6667 22.6667H36V25.3333C36 25.7111 35.8722 26.0278 35.6167 26.2833C35.3611 26.5389 35.0444 26.6667 34.6667 26.6667C34.2889 26.6667 33.9722 26.5389 33.7167 26.2833C33.4611 26.0278 33.3333 25.7111 33.3333 25.3333V22.6667Z" fill="#2A0E0C"/>
</g>
</svg>
