<svg width="141" height="141" viewBox="0 0 141 141" fill="none" xmlns="http://www.w3.org/2000/svg">
<rect x="4.75961" y="4.75961" width="131.25" height="131.25" rx="65.625" fill="white"/>
<rect x="4.75961" y="4.75961" width="131.25" height="131.25" rx="65.625" stroke="url(#paint0_linear_1115_2236)" stroke-width="8.75" stroke-dasharray="2.62 2.62"/>
<path d="M48.1427 70.3495L55.566 55.6563V55.537H46.9495V52.8949H58.8387V55.5966L51.424 70.3495H48.1427ZM67.4147 52.6563C68.2499 52.662 69.0624 52.8097 69.8522 53.0995C70.6477 53.3835 71.3636 53.8495 71.9999 54.4972C72.6363 55.1392 73.142 56 73.517 57.0796C73.892 58.1591 74.0795 59.4943 74.0795 61.0853C74.0852 62.5853 73.9261 63.9262 73.6022 65.108C73.284 66.2841 72.8267 67.2784 72.2301 68.0909C71.6335 68.9034 70.9147 69.5228 70.0738 69.9489C69.2329 70.375 68.2869 70.5881 67.2357 70.5881C66.1335 70.5881 65.1562 70.3722 64.3039 69.9404C63.4573 69.5085 62.7727 68.9176 62.2499 68.1676C61.7272 67.4176 61.4062 66.5597 61.2869 65.5938H64.3977C64.5568 66.287 64.8806 66.8381 65.3693 67.2472C65.8636 67.6506 66.4857 67.8523 67.2357 67.8523C68.446 67.8523 69.3778 67.3267 70.0312 66.2756C70.6846 65.2245 71.0113 63.7642 71.0113 61.8949H70.892C70.6136 62.3949 70.2528 62.8267 69.8096 63.1904C69.3664 63.5483 68.8636 63.8239 68.3011 64.0171C67.7443 64.2103 67.1534 64.3068 66.5284 64.3068C65.5056 64.3068 64.5852 64.0625 63.767 63.5739C62.9545 63.0853 62.3096 62.4148 61.8323 61.5625C61.3607 60.7103 61.1221 59.7358 61.1164 58.6392C61.1164 57.5029 61.3778 56.483 61.9005 55.5796C62.4289 54.6705 63.1647 53.9546 64.1079 53.4318C65.0511 52.9034 66.1534 52.6449 67.4147 52.6563ZM67.4232 55.2131C66.8096 55.2131 66.2556 55.3637 65.7613 55.6648C65.2727 55.9603 64.8863 56.3637 64.6022 56.875C64.3238 57.3807 64.1846 57.946 64.1846 58.571C64.1903 59.1904 64.3295 59.7529 64.6022 60.2585C64.8806 60.7642 65.2585 61.1648 65.7357 61.4603C66.2187 61.7557 66.7698 61.9034 67.3892 61.9034C67.8494 61.9034 68.2784 61.8154 68.6761 61.6392C69.0738 61.4631 69.4204 61.2188 69.7159 60.9063C70.017 60.5881 70.2499 60.2273 70.4147 59.8239C70.5852 59.4205 70.6676 58.9943 70.6619 58.5455C70.6619 57.9489 70.5198 57.3978 70.2357 56.8921C69.9573 56.3864 69.5738 55.9801 69.0852 55.6733C68.6022 55.3665 68.0482 55.2131 67.4232 55.2131ZM86.2499 67.0767V66.1563C86.2499 65.4801 86.392 64.858 86.6761 64.2898C86.9659 63.7216 87.3863 63.2642 87.9374 62.9176C88.4886 62.571 89.1562 62.3978 89.9403 62.3978C90.7471 62.3978 91.4232 62.571 91.9687 62.9176C92.5142 63.2585 92.9261 63.7131 93.2045 64.2813C93.4886 64.8495 93.6306 65.4745 93.6306 66.1563V67.0767C93.6306 67.7529 93.4886 68.375 93.2045 68.9432C92.9204 69.5114 92.5028 69.9688 91.9517 70.3154C91.4062 70.662 90.7357 70.8353 89.9403 70.8353C89.1448 70.8353 88.4715 70.662 87.9204 70.3154C87.3693 69.9688 86.9517 69.5114 86.6676 68.9432C86.3892 68.375 86.2499 67.7529 86.2499 67.0767ZM88.4744 66.1563V67.0767C88.4744 67.5256 88.5823 67.9375 88.7982 68.3125C89.0142 68.6875 89.3948 68.875 89.9403 68.875C90.4914 68.875 90.8693 68.6904 91.0738 68.321C91.284 67.946 91.3892 67.5313 91.3892 67.0767V66.1563C91.3892 65.7017 91.2897 65.287 91.0909 64.912C90.892 64.5313 90.5085 64.3409 89.9403 64.3409C89.4062 64.3409 89.0284 64.5313 88.8068 64.912C88.5852 65.287 88.4744 65.7017 88.4744 66.1563ZM77.3778 57.0881V56.1676C77.3778 55.4858 77.5227 54.8608 77.8124 54.2926C78.1022 53.7245 78.5227 53.2699 79.0738 52.929C79.6249 52.5824 80.2926 52.4091 81.0767 52.4091C81.8778 52.4091 82.5511 52.5824 83.0965 52.929C83.6477 53.2699 84.0624 53.7245 84.3409 54.2926C84.6193 54.8608 84.7585 55.4858 84.7585 56.1676V57.0881C84.7585 57.7699 84.6164 58.3949 84.3323 58.9631C84.0539 59.5256 83.6392 59.9773 83.088 60.3182C82.5369 60.6591 81.8664 60.8296 81.0767 60.8296C80.2755 60.8296 79.5994 60.6591 79.0482 60.3182C78.5028 59.9773 78.088 59.5228 77.8039 58.9546C77.5198 58.3864 77.3778 57.7642 77.3778 57.0881ZM79.6193 56.1676V57.0881C79.6193 57.5426 79.7244 57.9574 79.9346 58.3324C80.1505 58.7017 80.5312 58.8864 81.0767 58.8864C81.6221 58.8864 81.9971 58.7017 82.2017 58.3324C82.4119 57.9574 82.517 57.5426 82.517 57.0881V56.1676C82.517 55.7131 82.4176 55.2983 82.2187 54.9233C82.0198 54.5426 81.6392 54.3523 81.0767 54.3523C80.5369 54.3523 80.159 54.5426 79.9431 54.9233C79.7272 55.304 79.6193 55.7188 79.6193 56.1676ZM78.3494 70.3495L90.3494 52.8949H92.4801L80.4801 70.3495H78.3494Z" fill="#252C32"/>
<path d="M38.034 82.5583C34.8175 82.5583 32.2007 85.1751 32.2007 88.3916C32.2001 89.2919 32.4101 90.1798 32.8138 90.9845C32.9129 91.1828 33.1148 91.3083 33.3358 91.3083H42.7316C42.9527 91.3083 43.1551 91.1828 43.2543 90.9845C43.6579 90.1798 43.8679 89.2919 43.8673 88.3916C43.8673 85.1751 41.2505 82.5583 38.034 82.5583ZM40.9635 85.4878L38.6523 89.0099C38.588 89.1081 38.505 89.1927 38.408 89.2587C38.311 89.3248 38.2019 89.3711 38.087 89.3949C37.972 89.4187 37.8535 89.4197 37.7382 89.3977C37.623 89.3756 37.5131 89.3311 37.4151 89.2666C37.291 89.1854 37.1891 89.0747 37.1185 88.9442C37.048 88.8138 37.0111 88.6679 37.0111 88.5196C37.0111 88.3714 37.048 88.2254 37.1185 88.095C37.1891 87.9646 37.291 87.8538 37.4151 87.7727L40.9373 85.4615C40.9415 85.4589 40.9467 85.458 40.9516 85.4591C40.9565 85.4602 40.9608 85.4631 40.9635 85.4673C40.9656 85.4703 40.9668 85.4739 40.9668 85.4775C40.9668 85.4812 40.9656 85.4848 40.9635 85.4878Z" fill="black"/>
<path d="M49.5131 91.2259V82.3168H55.0987V83.4739H50.8573V86.1884H54.8073V87.3412H50.8573V90.0687H55.1509V91.2259H49.5131ZM60.1699 88.3374H61.4923L62.4233 89.5511L62.8626 90.0905L64.346 92.0263H62.9714L61.9795 90.7343L61.6402 90.2645L60.1699 88.3374ZM64.6331 86.7713C64.6331 87.7225 64.4591 88.5404 64.1111 89.2248C63.7631 89.9063 63.286 90.4312 62.6799 90.7995C62.0767 91.165 61.3908 91.3477 60.6223 91.3477C59.8509 91.3477 59.1621 91.165 58.556 90.7995C57.9528 90.4312 57.4772 89.9049 57.1291 89.2204C56.7811 88.536 56.6071 87.7196 56.6071 86.7713C56.6071 85.8201 56.7811 85.0037 57.1291 84.3222C57.4772 83.6378 57.9528 83.1128 58.556 82.7474C59.1621 82.3791 59.8509 82.195 60.6223 82.195C61.3908 82.195 62.0767 82.3791 62.6799 82.7474C63.286 83.1128 63.7631 83.6378 64.1111 84.3222C64.4591 85.0037 64.6331 85.8201 64.6331 86.7713ZM63.302 86.7713C63.302 86.0463 63.1845 85.4358 62.9496 84.9399C62.7176 84.4411 62.3986 84.0641 61.9926 83.8089C61.5895 83.5508 61.1327 83.4217 60.6223 83.4217C60.109 83.4217 59.6508 83.5508 59.2477 83.8089C58.8445 84.0641 58.5255 84.4411 58.2906 84.9399C58.0586 85.4358 57.9426 86.0463 57.9426 86.7713C57.9426 87.4963 58.0586 88.1083 58.2906 88.6071C58.5255 89.103 58.8445 89.48 59.2477 89.7381C59.6508 89.9933 60.109 90.1209 60.6223 90.1209C61.1327 90.1209 61.5895 89.9933 61.9926 89.7381C62.3986 89.48 62.7176 89.103 62.9496 88.6071C63.1845 88.1083 63.302 87.4963 63.302 86.7713ZM71.1681 84.6571C71.1217 84.2453 70.9303 83.9263 70.5939 83.7001C70.2575 83.471 69.8341 83.3565 69.3237 83.3565C68.9583 83.3565 68.6422 83.4145 68.3753 83.5305C68.1085 83.6436 67.9012 83.8002 67.7533 84.0003C67.6083 84.1975 67.5358 84.4222 67.5358 84.6745C67.5358 84.8863 67.5851 85.069 67.6837 85.2227C67.7852 85.3764 67.9171 85.5054 68.0795 85.6098C68.2448 85.7113 68.4217 85.7969 68.6103 85.8665C68.7988 85.9332 68.98 85.9883 69.154 86.0318L70.024 86.258C70.3083 86.3276 70.5997 86.4219 70.8984 86.5408C71.1971 86.6597 71.4741 86.8163 71.7293 87.0106C71.9845 87.2049 72.1904 87.4456 72.347 87.7327C72.5065 88.0198 72.5863 88.3635 72.5863 88.7637C72.5863 89.2683 72.4558 89.7164 72.1948 90.1079C71.9367 90.4994 71.5611 90.8082 71.0681 91.0345C70.578 91.2607 69.9849 91.3738 69.2889 91.3738C68.6219 91.3738 68.0447 91.2679 67.5575 91.0562C67.0703 90.8445 66.6889 90.5443 66.4134 90.1557C66.1379 89.7642 65.9857 89.3002 65.9567 88.7637H67.3052C67.3313 89.0856 67.4357 89.3538 67.6184 89.5685C67.804 89.7802 68.0404 89.9382 68.3275 90.0426C68.6175 90.1441 68.9351 90.1949 69.2802 90.1949C69.6601 90.1949 69.9979 90.1354 70.2938 90.0165C70.5925 89.8947 70.8274 89.7265 70.9985 89.5119C71.1696 89.2944 71.2551 89.0406 71.2551 88.7506C71.2551 88.4867 71.1797 88.2707 71.0289 88.1025C70.881 87.9343 70.6795 87.795 70.4243 87.6848C70.172 87.5746 69.8863 87.4775 69.5673 87.3934L68.5145 87.1063C67.8011 86.912 67.2356 86.6263 66.818 86.2493C66.4033 85.8723 66.1959 85.3735 66.1959 84.7528C66.1959 84.2395 66.3351 83.7915 66.6135 83.4087C66.8919 83.0258 67.269 82.7286 67.7446 82.5169C68.2202 82.3023 68.7567 82.195 69.3541 82.195C69.9573 82.195 70.4895 82.3008 70.9506 82.5125C71.4146 82.7242 71.7801 83.0157 72.0469 83.3869C72.3137 83.7552 72.4529 84.1786 72.4645 84.6571H71.1681ZM82.2936 84.6571C82.2472 84.2453 82.0558 83.9263 81.7194 83.7001C81.383 83.471 80.9596 83.3565 80.4492 83.3565C80.0838 83.3565 79.7676 83.4145 79.5008 83.5305C79.234 83.6436 79.0267 83.8002 78.8788 84.0003C78.7338 84.1975 78.6613 84.4222 78.6613 84.6745C78.6613 84.8863 78.7106 85.069 78.8092 85.2227C78.9107 85.3764 79.0426 85.5054 79.205 85.6098C79.3703 85.7113 79.5472 85.7969 79.7357 85.8665C79.9242 85.9332 80.1055 85.9883 80.2795 86.0318L81.1495 86.258C81.4337 86.3276 81.7252 86.4219 82.0239 86.5408C82.3226 86.6597 82.5996 86.8163 82.8548 87.0106C83.11 87.2049 83.3159 87.4456 83.4725 87.7327C83.632 88.0198 83.7118 88.3635 83.7118 88.7637C83.7118 89.2683 83.5813 89.7164 83.3203 90.1079C83.0621 90.4994 82.6866 90.8082 82.1936 91.0345C81.7035 91.2607 81.1104 91.3738 80.4144 91.3738C79.7473 91.3738 79.1702 91.2679 78.683 91.0562C78.1958 90.8445 77.8144 90.5443 77.5389 90.1557C77.2634 89.7642 77.1112 89.3002 77.0822 88.7637H78.4307C78.4568 89.0856 78.5612 89.3538 78.7439 89.5685C78.9295 89.7802 79.1659 89.9382 79.453 90.0426C79.743 90.1441 80.0605 90.1949 80.4057 90.1949C80.7856 90.1949 81.1234 90.1354 81.4192 90.0165C81.718 89.8947 81.9529 89.7265 82.124 89.5119C82.2951 89.2944 82.3806 89.0406 82.3806 88.7506C82.3806 88.4867 82.3052 88.2707 82.1544 88.1025C82.0065 87.9343 81.805 87.795 81.5497 87.6848C81.2974 87.5746 81.0118 87.4775 80.6928 87.3934L79.64 87.1063C78.9266 86.912 78.3611 86.6263 77.9435 86.2493C77.5288 85.8723 77.3214 85.3735 77.3214 84.7528C77.3214 84.2395 77.4606 83.7915 77.739 83.4087C78.0174 83.0258 78.3944 82.7286 78.8701 82.5169C79.3457 82.3023 79.8822 82.195 80.4796 82.195C81.0828 82.195 81.615 82.3008 82.0761 82.5125C82.5401 82.7242 82.9055 83.0157 83.1724 83.3869C83.4392 83.7552 83.5784 84.1786 83.59 84.6571H82.2936ZM88.0282 91.3607C87.3815 91.3607 86.8247 91.2143 86.3577 90.9214C85.8937 90.6255 85.537 90.2181 85.2876 89.699C85.0382 89.1798 84.9135 88.5853 84.9135 87.9154C84.9135 87.2368 85.0411 86.6379 85.2963 86.1188C85.5515 85.5968 85.9111 85.1893 86.3751 84.8964C86.8392 84.6035 87.3858 84.457 88.0151 84.457C88.5227 84.457 88.9751 84.5513 89.3724 84.7398C89.7697 84.9254 90.0902 85.1864 90.3338 85.5228C90.5803 85.8592 90.7267 86.2522 90.7731 86.7017H89.5072C89.4376 86.3885 89.2781 86.1188 89.0287 85.8926C88.7822 85.6664 88.4516 85.5533 88.0369 85.5533C87.6744 85.5533 87.3568 85.649 87.0842 85.8404C86.8145 86.0289 86.6042 86.2986 86.4534 86.6495C86.3026 86.9975 86.2272 87.4093 86.2272 87.885C86.2272 88.3722 86.3012 88.7927 86.4491 89.1465C86.597 89.5003 86.8058 89.7744 87.0755 89.9687C87.3481 90.163 87.6686 90.2601 88.0369 90.2601C88.2834 90.2601 88.5067 90.2152 88.7068 90.1253C88.9098 90.0325 89.0795 89.9005 89.2158 89.7294C89.355 89.5583 89.4521 89.3524 89.5072 89.1117H90.7731C90.7267 89.5438 90.5861 89.9295 90.3512 90.2688C90.1163 90.6081 89.8016 90.8749 89.4072 91.0693C89.0157 91.2636 88.556 91.3607 88.0282 91.3607ZM94.9786 91.3607C94.3522 91.3607 93.8055 91.2172 93.3386 90.9301C92.8717 90.6429 92.5092 90.2413 92.2511 89.7251C91.993 89.2088 91.8639 88.6056 91.8639 87.9154C91.8639 87.2223 91.993 86.6162 92.2511 86.097C92.5092 85.5779 92.8717 85.1748 93.3386 84.8877C93.8055 84.6006 94.3522 84.457 94.9786 84.457C95.6051 84.457 96.1517 84.6006 96.6186 84.8877C97.0856 85.1748 97.4481 85.5779 97.7062 86.097C97.9643 86.6162 98.0933 87.2223 98.0933 87.9154C98.0933 88.6056 97.9643 89.2088 97.7062 89.7251C97.4481 90.2413 97.0856 90.6429 96.6186 90.9301C96.1517 91.2172 95.6051 91.3607 94.9786 91.3607ZM94.983 90.2688C95.389 90.2688 95.7254 90.1615 95.9922 89.9469C96.259 89.7323 96.4562 89.4467 96.5838 89.0899C96.7143 88.7332 96.7796 88.3403 96.7796 87.9111C96.7796 87.4847 96.7143 87.0932 96.5838 86.7365C96.4562 86.3769 96.259 86.0883 95.9922 85.8708C95.7254 85.6533 95.389 85.5446 94.983 85.5446C94.5741 85.5446 94.2348 85.6533 93.9651 85.8708C93.6982 86.0883 93.4996 86.3769 93.3691 86.7365C93.2415 87.0932 93.1777 87.4847 93.1777 87.9111C93.1777 88.3403 93.2415 88.7332 93.3691 89.0899C93.4996 89.4467 93.6982 89.7323 93.9651 89.9469C94.2348 90.1615 94.5741 90.2688 94.983 90.2688ZM99.5452 91.2259V84.544H100.802V85.6055H100.872C100.994 85.2459 101.208 84.9631 101.516 84.7572C101.826 84.5484 102.177 84.444 102.569 84.444C102.65 84.444 102.745 84.4469 102.856 84.4527C102.969 84.4585 103.057 84.4657 103.121 84.4744V85.7186C103.069 85.7041 102.976 85.6881 102.843 85.6707C102.709 85.6504 102.576 85.6403 102.442 85.6403C102.135 85.6403 101.861 85.7055 101.62 85.836C101.382 85.9636 101.194 86.142 101.055 86.3711C100.915 86.5973 100.846 86.8554 100.846 87.1454V91.2259H99.5452ZM106.887 91.3607C106.229 91.3607 105.662 91.2201 105.186 90.9388C104.714 90.6545 104.348 90.2558 104.09 89.7425C103.835 89.2262 103.707 88.6216 103.707 87.9285C103.707 87.244 103.835 86.6408 104.09 86.1188C104.348 85.5968 104.708 85.1893 105.169 84.8964C105.633 84.6035 106.175 84.457 106.796 84.457C107.173 84.457 107.538 84.5194 107.892 84.6441C108.246 84.7688 108.563 84.9646 108.845 85.2314C109.126 85.4982 109.348 85.8447 109.51 86.271C109.673 86.6945 109.754 87.2092 109.754 87.8153V88.2765H104.442V87.302H108.479C108.479 86.9598 108.41 86.6568 108.27 86.3929C108.131 86.126 107.936 85.9158 107.683 85.7621C107.434 85.6084 107.141 85.5315 106.804 85.5315C106.439 85.5315 106.12 85.6214 105.847 85.8012C105.578 85.9781 105.369 86.2101 105.221 86.4973C105.076 86.7815 105.004 87.0903 105.004 87.4238V88.1851C105.004 88.6317 105.082 89.0116 105.238 89.3248C105.398 89.6381 105.62 89.8773 105.904 90.0426C106.188 90.205 106.52 90.2862 106.9 90.2862C107.147 90.2862 107.371 90.2514 107.574 90.1818C107.777 90.1093 107.953 90.002 108.101 89.8599C108.249 89.7178 108.362 89.5424 108.44 89.3335L109.671 89.5554C109.573 89.9179 109.396 90.2355 109.141 90.5081C108.888 90.7778 108.571 90.9881 108.188 91.1389C107.808 91.2868 107.374 91.3607 106.887 91.3607Z" fill="#252C32"/>
<defs>
<linearGradient id="paint0_linear_1115_2236" x1="70.3846" y1="0.384613" x2="70.3846" y2="140.385" gradientUnits="userSpaceOnUse">
<stop stop-color="#FE5655"/>
<stop offset="1" stop-color="#89D0F7"/>
</linearGradient>
</defs>
</svg>
