<svg width="20" height="38" viewBox="0 0 20 38" fill="none" xmlns="http://www.w3.org/2000/svg">
<path d="M0.980653 15.1985C5.52385 10.2554 12.4489 3.15267 14.9642 0.794472C15.4302 0.357544 15.7773 0.590506 15.626 1.21116C14.4363 6.09206 12.5926 11.1703 12.5926 15.1295C12.5926 15.2525 12.9902 16.2418 13.1407 16.6104C13.1736 16.6911 13.2166 16.766 13.2706 16.8344C14.6402 18.5697 16.9642 20.3603 18.8963 21.6012C19.4473 21.9551 19.5503 22.7309 19.0898 23.1964L5.56106 36.8741C4.81273 37.6306 3.51121 36.8351 3.81963 35.8166C5.50118 30.2639 7.24967 23.0919 6.17284 21.1328C5.12009 19.2174 2.95093 17.733 1.32176 16.8812C0.699707 16.556 0.505653 15.7153 0.980653 15.1985Z" fill="#FF847C"/>
</svg>
