<?xml version="1.0" encoding="UTF-8"?>
<svg id="Layer_1" data-name="Layer 1" xmlns="http://www.w3.org/2000/svg" version="1.1" viewBox="0 0 1438.8 512.6">
  <defs>
    <style>
      .cls-1 {
        fill: #ff847c;
      }

      .cls-1, .cls-2 {
        stroke-width: 0px;
      }

      .cls-2 {
        fill: #18103d;
      }
    </style>
  </defs>
  <path class="cls-1" d="M265.7,277.2l-37-16.8c-27.7-12.6-41.6-43.8-32.5-73.2l45.2-147.2c1.8-5.7-5.2-10-9.5-5.9L39.4,214.9c-6.4,6-4.7,16.6,3.4,20.3l37.1,16.8c27.7,12.6,41.6,43.8,32.6,73.2l-45.4,147.4c-1.7,5.6,5.1,9.9,9.4,5.9l192.7-181.1c6.4-6,4.7-16.6-3.4-20.3Z"/>
  <path class="cls-2" d="M552.7,141.7v242.2c0,2.8,2.3,5,5,5h23.8c2.8,0,5-2.3,5-5v-242.2c0-2.8-2.3-5-5-5h-23.8c-2.8,0-5,2.3-5,5Z"/>
  <path class="cls-2" d="M750.6,222.1c-13-11.3-30.6-16.9-53-16.9s-24.6,1.8-37.1,5.4c-11.1,3.2-21.7,7.9-32,14.3-2.2,1.4-3,4.5-1.6,6.8l10.7,18.5c1.4,2.5,4.6,3.3,7,1.7,5.8-3.8,12.3-7.1,19.5-10,9.4-3.8,19.8-5.7,31.4-5.7,27.1,0,40.7,12.4,40.7,37.1v40c0,6.3-1.6,12.3-4.9,18.2-3.2,5.9-7.5,11.1-12.8,15.7-5.3,4.5-11.4,8.2-18.4,10.8-6.9,2.9-14,4.3-21.3,4.3s-17.3-2.4-23.1-7.2c-5.8-4.8-8.7-11.3-8.7-19.5s3-14.9,9-19.4c6-4.6,14.5-6.9,25.6-6.9h14.8c2.8,0,5-2.3,5-5v-19.2c0-2.8-2.3-5-5-5h-14.1c-22.3,0-39.6,5-51.7,15-12.1,10-18.2,23.7-18.2,41.3s1.5,16.4,4.7,23.4c3.1,6.9,7.4,13,13,18,5.5,4.8,12.1,8.7,19.8,11.5,7.7,2.6,16.2,4,25.6,4s22.6-2.3,33.2-6.8c7.8-3.3,14.9-7.7,21.3-13.2,3.4-3,7.1-1.9,8.2,2.5l2.3,9.4c.5,2.1,2.7,3.8,4.9,3.8h19.6c2.8,0,5-2.3,5-5v-110.7c0-22.6-6.5-39.7-19.5-51.2Z"/>
  <path class="cls-2" d="M912.5,308.9c-8.2-8.4-21.5-16.4-40-24.1-12-4.8-20.3-9.2-24.9-13.3-4.3-4.3-6.5-9.4-6.5-15.1v-.4c0-6.7,2.3-11.8,6.9-15.1,4.5-3.3,10.6-5,18.4-5s.5,0,.7,0c11.9.9,22.7,4.2,32.4,10,2.3,1.3,5.3.5,6.7-1.7l11-17.6c1.4-2.3.8-5.4-1.4-6.8-7.1-4.6-14.3-8.1-21.6-10.3-8.7-2.9-18.1-4.3-28.5-4.3h-.3c-18.3,0-32.7,4.2-43.3,12.6-10.3,8.4-15.5,20.4-15.5,36s3.2,22,9.7,30.6c6.5,8.9,16.9,16.7,31.3,23.4l9,4.3c9.1,4.1,17.1,8.2,23.8,12.3,6.5,4.1,9.7,9.5,9.7,16.2s-2.7,10.7-8.3,14.8c-5.5,4.1-12.2,6.1-20.2,6.1s-19.3-1.2-27-3.6c-6.3-1.9-12.7-4.7-19.3-8.3-2.5-1.3-5.5-.5-6.9,2l-10.1,18.7c-1.3,2.4-.4,5.4,2,6.8,6.8,3.9,14.8,7.3,24,10.2,11.2,3.5,24.7,5.2,40.5,5.2s16-1.5,23.4-4.3c7.2-2.6,13.4-6.4,18.7-11.2,5.5-4.8,9.9-10.6,13-17.3,3.1-6.5,4.7-13.5,4.7-20.9,0-11.3-4.1-21.3-12.3-29.9Z"/>
  <path class="cls-2" d="M1106.9,246.6c-3.1-9.2-7.5-16.8-13.1-22.9-5.7-6.1-12.3-10.7-20-13.9-7.7-3.1-15.9-4.7-24.5-4.7-13.9,0-25.6,3.1-35,9.4-5.6,3.8-10.6,7.8-14.9,12.1-4.7,4.6-8.5,3-8.5-3.6v-81.3c0-2.8-2.3-5-5-5h-23.8c-2.8,0-5,2.3-5,5v242.2c0,2.8,2.3,5,5,5h23.8c2.8,0,5-2.3,5-5v-104.5c0-4.8,1.6-9.7,4.7-14.8,3.1-5.3,7.2-10,12.2-14.2,5.1-4.2,10.8-7.7,17.3-10.4,6.5-2.8,13.1-4.2,19.8-4.2,10.4,0,18.5,3.6,24.3,10.8,5.9,7.2,8.8,17.9,8.8,32.1v105.2c0,2.8,2.3,5,5,5h23.8c2.8,0,5-2.3,5-5v-105.2c0-12-1.7-22.7-5-32.1Z"/>
  <path class="cls-2" d="M1183.3,315.7c-14.1-20.1-12.3-47.3,4.4-65.3l30.8-33.1c4.3-4.6,2.7-8.4-3.7-8.4h-28.1c-1.2,0-2.9.7-3.7,1.6l-19.1,20.7c-27.3,29.5-30.2,74-7.1,106.9l34.5,49c.8,1.2,2.7,2.1,4.1,2.1h29.9c5.3,0,7.2-3.6,4.1-7.9l-46.2-65.4Z"/>
  <path class="cls-2" d="M1257.3,213.7v170.2c0,2.8,2.3,5,5,5h23.9c2.8,0,5-2.3,5-5v-170.2c0-2.8-2.3-5-5-5h-23.9c-2.8,0-5,2.3-5,5ZM1257.3,141.7v23.8c0,2.8,2.3,5,5,5h23.9c2.8,0,5-2.3,5-5v-23.8c0-2.8-2.3-5-5-5h-23.9c-2.8,0-5,2.3-5,5Z"/>
  <path class="cls-2" d="M1403.3,213.7v20.3c0,2.8-2.3,5-5,5h-27.5c-2.8,0-5,2.3-5,5v139.9c0,2.8-2.3,5-5,5h-23.9c-2.8,0-5-2.3-5-5v-144.9h0v-30.3h0v-67.1c0-2.8,2.3-5,5-5h23.9c2.8,0,5,2.3,5,5v62c0,2.8,2.3,5,5,5h27.5c2.8,0,5,2.3,5,5Z"/>
  <rect class="cls-2" x="395.5" y="281.5" width="33.9" height="107.5" rx="5" ry="5"/>
  <path class="cls-2" d="M518.9,246.2v20.3c0,2.8-2.3,5-5,5h-151.7c-2.8,0-5-2.3-5-5h0c0-2.8,2.3-5,5-5h28.3c2.8,0,5-2.3,5-5v-4.8c0-2.8,2.3-5,5-5h11.9c2.8,0,5-2.3,5-5h0c0-2.8-2.3-5.1-5-5.1h-78.8c-2.8,0-5-2.3-5-5h0c0-2.8,2.3-5,5-5h61.9v-3.3c0-29.6.8-37,2.3-42.1.6-2,2.8-3.6,4.8-3.6h33.2c0,0-.1.2-.2.3-4.1,6.9-6.1,16.1-6.1,27.4v31c0,2.8,2.3,5,5,5h79.5c2.8,0,5,2.3,5,5Z"/>
  <path class="cls-2" d="M535.5,141.7v20.7c0,2.8-2.3,5-5,5h-74.5c-.1,0-.2,0-.4,0h-77.6c-2.8,0-5-2.3-5-5h0c0-2.8,2.3-5.1,5-5.1h29.1c1.3,0,3-.9,3.9-1.9s1.1-1.3,1.7-1.9c5.3-5.5,11.7-9.7,19.1-12.6,7.2-2.9,15-4.3,23.4-4.3h75.2c2.8,0,5,2.3,5,5Z"/>
</svg>