<svg width="56" height="56" viewBox="0 0 56 56" fill="none" xmlns="http://www.w3.org/2000/svg">
<rect width="56" height="56" rx="28" fill="#71C497"/>
<mask id="mask0_2_175" style="mask-type:alpha" maskUnits="userSpaceOnUse" x="12" y="12" width="32" height="32">
<rect x="12" y="12" width="32" height="32" fill="#D9D9D9"/>
</mask>
<g mask="url(#mask0_2_175)">
<path d="M34.6667 41.3333C33.5556 41.3333 32.6111 40.9444 31.8334 40.1666C31.0556 39.3888 30.6667 38.4444 30.6667 37.3333C30.6667 37.2 30.7 36.8888 30.7667 36.4L21.4 30.9333C21.0445 31.2666 20.6334 31.5277 20.1667 31.7166C19.7 31.9055 19.2 32 18.6667 32C17.5556 32 16.6111 31.6111 15.8334 30.8333C15.0556 30.0555 14.6667 29.1111 14.6667 28C14.6667 26.8888 15.0556 25.9444 15.8334 25.1666C16.6111 24.3888 17.5556 24 18.6667 24C19.2 24 19.7 24.0944 20.1667 24.2833C20.6334 24.4722 21.0445 24.7333 21.4 25.0666L30.7667 19.6C30.7222 19.4444 30.6945 19.2944 30.6834 19.15C30.6722 19.0055 30.6667 18.8444 30.6667 18.6666C30.6667 17.5555 31.0556 16.6111 31.8334 15.8333C32.6111 15.0555 33.5556 14.6666 34.6667 14.6666C35.7778 14.6666 36.7222 15.0555 37.5 15.8333C38.2778 16.6111 38.6667 17.5555 38.6667 18.6666C38.6667 19.7777 38.2778 20.7222 37.5 21.5C36.7222 22.2777 35.7778 22.6666 34.6667 22.6666C34.1334 22.6666 33.6334 22.5722 33.1667 22.3833C32.7 22.1944 32.2889 21.9333 31.9334 21.6L22.5667 27.0666C22.6111 27.2222 22.6389 27.3722 22.65 27.5166C22.6611 27.6611 22.6667 27.8222 22.6667 28C22.6667 28.1777 22.6611 28.3388 22.65 28.4833C22.6389 28.6277 22.6111 28.7777 22.5667 28.9333L31.9334 34.4C32.2889 34.0666 32.7 33.8055 33.1667 33.6166C33.6334 33.4277 34.1334 33.3333 34.6667 33.3333C35.7778 33.3333 36.7222 33.7222 37.5 34.5C38.2778 35.2777 38.6667 36.2222 38.6667 37.3333C38.6667 38.4444 38.2778 39.3888 37.5 40.1666C36.7222 40.9444 35.7778 41.3333 34.6667 41.3333ZM34.6667 38.6666C35.0445 38.6666 35.3611 38.5388 35.6167 38.2833C35.8722 38.0277 36 37.7111 36 37.3333C36 36.9555 35.8722 36.6388 35.6167 36.3833C35.3611 36.1277 35.0445 36 34.6667 36C34.2889 36 33.9722 36.1277 33.7167 36.3833C33.4611 36.6388 33.3334 36.9555 33.3334 37.3333C33.3334 37.7111 33.4611 38.0277 33.7167 38.2833C33.9722 38.5388 34.2889 38.6666 34.6667 38.6666ZM18.6667 29.3333C19.0445 29.3333 19.3611 29.2055 19.6167 28.95C19.8722 28.6944 20 28.3777 20 28C20 27.6222 19.8722 27.3055 19.6167 27.05C19.3611 26.7944 19.0445 26.6666 18.6667 26.6666C18.2889 26.6666 17.9722 26.7944 17.7167 27.05C17.4611 27.3055 17.3334 27.6222 17.3334 28C17.3334 28.3777 17.4611 28.6944 17.7167 28.95C17.9722 29.2055 18.2889 29.3333 18.6667 29.3333ZM34.6667 20C35.0445 20 35.3611 19.8722 35.6167 19.6166C35.8722 19.3611 36 19.0444 36 18.6666C36 18.2888 35.8722 17.9722 35.6167 17.7166C35.3611 17.4611 35.0445 17.3333 34.6667 17.3333C34.2889 17.3333 33.9722 17.4611 33.7167 17.7166C33.4611 17.9722 33.3334 18.2888 33.3334 18.6666C33.3334 19.0444 33.4611 19.3611 33.7167 19.6166C33.9722 19.8722 34.2889 20 34.6667 20Z" fill="#2A0E0C"/>
</g>
</svg>
