<svg width="16" height="16" viewBox="0 0 16 16" fill="none" xmlns="http://www.w3.org/2000/svg">
<path d="M5.138 11.3446C5.33184 11.4815 5.56344 11.5547 5.80073 11.5541C6.03802 11.5535 6.26925 11.4792 6.4624 11.3413C6.6582 11.1983 6.8067 11.0003 6.8881 10.7715L7.3798 9.26123C7.50598 8.88268 7.71844 8.53864 8.0004 8.25629C8.28237 7.97394 8.62612 7.76102 9.0045 7.63433L10.5346 7.13933C10.7608 7.05743 10.9556 6.9066 11.0916 6.70812C11.2276 6.50963 11.2978 6.27348 11.2925 6.03295C11.2872 5.79242 11.2065 5.55962 11.0618 5.36737C10.9172 5.17512 10.7158 5.0331 10.4862 4.96133L8.9737 4.46853C8.59494 4.3425 8.25069 4.1301 7.96814 3.84813C7.68559 3.56616 7.4725 3.22233 7.3457 2.84383L6.8485 1.31703C6.76844 1.09209 6.62026 0.897705 6.42458 0.760904C6.2289 0.624104 5.99544 0.551696 5.75669 0.553754C5.51794 0.555811 5.28577 0.632231 5.09247 0.772382C4.89918 0.912534 4.75437 1.10945 4.6782 1.33573L4.1755 2.87573C4.04931 3.24408 3.84119 3.57901 3.56682 3.85528C3.29244 4.13156 2.95897 4.34199 2.5915 4.47073L1.0625 4.96243C0.837655 5.04266 0.643369 5.19091 0.506613 5.38658C0.369858 5.58226 0.297419 5.81566 0.299354 6.05439C0.301289 6.29311 0.377502 6.52531 0.517411 6.71874C0.65732 6.91218 0.853984 7.05725 1.0801 7.13383L2.5915 7.62333C2.97218 7.74966 3.3179 7.96357 3.60084 8.24785C3.88379 8.53214 4.09607 8.87886 4.2206 9.26013L4.7178 10.7902C4.797 11.0146 4.9444 11.2082 5.138 11.3446ZM11.8887 15.7908C12.0012 15.8699 12.1306 15.9218 12.2666 15.9423C12.4026 15.9627 12.5415 15.9513 12.6724 15.9088C12.8032 15.8663 12.9223 15.794 13.0204 15.6976C13.1184 15.6011 13.1927 15.4831 13.2373 15.353L13.5101 14.5148C13.5692 14.3411 13.667 14.1832 13.7961 14.0528C13.9259 13.9208 14.0843 13.824 14.2581 13.7668L15.1073 13.4896C15.2825 13.4291 15.4342 13.3149 15.5406 13.1631C15.6471 13.0113 15.7029 12.8298 15.7001 12.6445C15.6973 12.4591 15.636 12.2794 15.525 12.1309C15.414 11.9824 15.259 11.8728 15.082 11.8176L14.2416 11.5426C14.0678 11.4844 13.9099 11.3868 13.7802 11.2574C13.6504 11.1281 13.5523 10.9704 13.4936 10.7968L13.2164 9.94653C13.1569 9.77164 13.0438 9.61993 12.8933 9.51288C12.7427 9.40583 12.5623 9.34888 12.3775 9.35009C12.1928 9.35131 12.0131 9.41063 11.864 9.51966C11.7149 9.62868 11.6038 9.78188 11.5466 9.95753L11.2749 10.7957C11.2188 10.9682 11.1235 11.1253 10.9966 11.2549C10.8697 11.3844 10.7146 11.4829 10.5434 11.5426L9.6931 11.8198C9.51814 11.8791 9.36628 11.992 9.25904 12.1424C9.15179 12.2928 9.0946 12.4732 9.09558 12.6579C9.09655 12.8426 9.15564 13.0224 9.26446 13.1717C9.37328 13.3209 9.52633 13.4322 9.7019 13.4896L10.5412 13.7613C10.7172 13.8207 10.8756 13.9186 11.0054 14.0484C11.1363 14.1793 11.2331 14.3377 11.2892 14.5126L11.5675 15.364C11.6278 15.5361 11.74 15.6853 11.8887 15.7908Z" fill="url(#paint0_linear_1477_13046)"/>
<defs>
<linearGradient id="paint0_linear_1477_13046" x1="-0.799743" y1="0.554718" x2="19.0003" y2="18.7047" gradientUnits="userSpaceOnUse">
<stop stop-color="#FE5655"/>
<stop offset="1" stop-color="#89D0F7"/>
</linearGradient>
</defs>
</svg>
