<svg width="15" height="17" viewBox="0 0 15 17" fill="none" xmlns="http://www.w3.org/2000/svg">
<g clip-path="url(#clip0_1115_2403)">
<path d="M10.4673 6.53035C11.4978 7.26663 12.7603 7.69984 14.1238 7.69984V5.0775C13.8657 5.0776 13.6083 5.05067 13.3559 4.99717V7.06133C11.9925 7.06133 10.7302 6.62817 9.69949 5.89195V11.2435C9.69949 13.9206 7.52812 16.0906 4.84983 16.0906C3.85049 16.0906 2.92161 15.7887 2.15002 15.2708C3.03069 16.1708 4.25882 16.7291 5.6175 16.7291C8.29601 16.7291 10.4674 14.559 10.4674 11.8818V6.53035H10.4673ZM11.4146 3.88472C10.888 3.30966 10.5421 2.56649 10.4673 1.74486V1.40759H9.73965C9.92283 2.45184 10.5477 3.34398 11.4146 3.88472ZM3.84404 13.2165C3.54977 12.8309 3.39071 12.3592 3.39146 11.8741C3.39146 10.6497 4.38462 9.65697 5.60994 9.65697C5.83826 9.65685 6.06523 9.69189 6.28288 9.76086V7.07987C6.02853 7.04505 5.77187 7.03021 5.51532 7.03568V9.12241C5.29756 9.05342 5.07048 9.01839 4.84205 9.01857C3.61678 9.01857 2.62368 10.0112 2.62368 11.2358C2.62368 12.1017 3.12007 12.8513 3.84404 13.2165Z" fill="#FF004F"/>
<path d="M9.69946 5.8919C10.7302 6.62812 11.9924 7.06128 13.3558 7.06128V4.99711C12.5948 4.83507 11.9211 4.43761 11.4146 3.88472C10.5475 3.34392 9.9228 2.45179 9.73963 1.40759H7.82829V11.8817C7.82393 13.1028 6.83248 14.0915 5.60981 14.0915C4.88937 14.0915 4.24926 13.7482 3.8439 13.2164C3.12004 12.8513 2.6236 12.1016 2.6236 11.2358C2.6236 10.0114 3.61671 9.01863 4.84197 9.01863C5.07673 9.01863 5.30299 9.05515 5.51524 9.12246V7.03573C2.88396 7.09008 0.767822 9.23893 0.767822 11.8817C0.767822 13.201 1.29477 14.397 2.15006 15.2709C2.92164 15.7887 3.85047 16.0907 4.84986 16.0907C7.52821 16.0907 9.69952 13.9205 9.69952 11.2435L9.69946 5.8919Z" fill="black"/>
<path d="M13.3559 4.99709V4.43907C12.6696 4.44007 11.9969 4.24798 11.4146 3.88476C11.93 4.44874 12.6087 4.83766 13.3559 4.9972M9.73959 1.40757C9.72214 1.3078 9.70874 1.20735 9.69942 1.1065V0.769226H7.0603V11.2434C7.05611 12.4644 6.06466 13.4531 4.84193 13.4531C4.4953 13.4536 4.1534 13.3726 3.84386 13.2166C4.24921 13.7483 4.88932 14.0914 5.60977 14.0914C6.83239 14.0914 7.82395 13.1029 7.82825 11.8818V1.40763L9.73959 1.40757ZM5.51537 7.03571V6.44156C5.29483 6.41145 5.07251 6.39637 4.84993 6.39643C2.17131 6.39643 0 8.56658 0 11.2434C0 12.9217 0.853352 14.4008 2.15012 15.2708C1.29484 14.397 0.76789 13.201 0.76789 11.8817C0.76789 9.23896 2.88397 7.09005 5.51537 7.03571Z" fill="#00F2EA"/>
</g>
<defs>
<clipPath id="clip0_1115_2403">
<rect width="14.1241" height="16" fill="white" transform="translate(0 0.769226)"/>
</clipPath>
</defs>
</svg>
